<?xml version="1.0" encoding="utf-8"?>
<!-- Generator: Adobe Illustrator 27.4.1, SVG Export Plug-In . SVG Version: 6.00 Build 0)  -->
<svg version="1.1" id="Layer_1" xmlns="http://www.w3.org/2000/svg" xmlns:xlink="http://www.w3.org/1999/xlink" x="0px" y="0px"
	 viewBox="0 0 445.5 86" style="enable-background:new 0 0 445.5 86;" xml:space="preserve">
<style type="text/css">
	.st0{fill:url(#SVGID_1_);}
	.st1{clip-path:url(#SVGID_00000167386746856513901470000003042487874386661053_);fill:#00ADEE;}
	.st2{clip-path:url(#SVGID_00000167386746856513901470000003042487874386661053_);}
	.st3{fill:#00ADEE;}
	.st4{clip-path:url(#SVGID_00000054242515072454618500000016323923471560882071_);fill:#FFFFFF;}
	.st5{fill:#FFFFFF;}
</style>
<linearGradient id="SVGID_1_" gradientUnits="userSpaceOnUse" x1="-49.5726" y1="42.174" x2="391.8576" y2="42.174" gradientTransform="matrix(1.0221 0 0 1 65.7771 0)">
	<stop  offset="0.4731" style="stop-color:#231F20"/>
	<stop  offset="0.566" style="stop-color:#1B3D4C;stop-opacity:0.8237"/>
	<stop  offset="0.7185" style="stop-color:#106A8D;stop-opacity:0.5342"/>
	<stop  offset="0.8469" style="stop-color:#078BBD;stop-opacity:0.2905"/>
	<stop  offset="0.9446" style="stop-color:#029FDB;stop-opacity:0.1051"/>
	<stop  offset="1" style="stop-color:#00A7E6;stop-opacity:0"/>
</linearGradient>
<path class="st0" d="M393.8,81.9H131.4c-19.7,0-35.6-16-35.6-35.6v-8.1c0-19.7,16-35.6,35.6-35.6l262.4,0c19.7,0,35.6,16,35.6,35.6
	v8.1C429.4,65.9,413.5,81.9,393.8,81.9z"/>
<g>
	<g>
		<defs>
			<rect id="SVGID_00000103237334383586192740000008903319534172553147_" x="5" y="2.3" width="546.2" height="79.9"/>
		</defs>
		<clipPath id="SVGID_00000144310959564571615110000013590893603388272806_">
			<use xlink:href="#SVGID_00000103237334383586192740000008903319534172553147_"  style="overflow:visible;"/>
		</clipPath>
		<path style="clip-path:url(#SVGID_00000144310959564571615110000013590893603388272806_);fill:#00ADEE;" d="M28.8,71
			c2.7,0,5.1,2.4,5.1,5.3v0.6c0,2.9-2.3,5.3-5.1,5.3H10.1c-2.7,0-5.1-2.4-5.1-5.3v-0.6c0-2.9,2.3-5.3,5.1-5.3H28.8"/>
		<path style="clip-path:url(#SVGID_00000144310959564571615110000013590893603388272806_);" d="M129.9,113.3c2.7,0,5.1,2.4,5.1,5.3
			v0.6c0,2.9-2.3,5.3-5.1,5.3h-18.8c-2.7,0-5.1-2.4-5.1-5.3v-0.6c0-2.9,2.3-5.3,5.1-5.3H129.9"/>
		<path style="clip-path:url(#SVGID_00000144310959564571615110000013590893603388272806_);" d="M129.9,113.3c2.7,0,5.1,2.4,5.1,5.3
			v0.6c0,2.9-2.3,5.3-5.1,5.3h-18.8c-2.7,0-5.1-2.4-5.1-5.3v-0.6c0-2.9,2.3-5.3,5.1-5.3H129.9"/>
		<path style="clip-path:url(#SVGID_00000144310959564571615110000013590893603388272806_);fill:#00ADEE;" d="M123.6,16.2
			L123.6,16.2c-11.7,0-21.1,9.8-21.1,22.1v8.8c0,12.3,9.4,22.1,21.1,22.1s21.1-9.8,21.1-22.1v-8.8C144.8,26.3,135.2,16.2,123.6,16.2
			z M130.9,37.2c2.7,0,5.1,2.5,5.1,5.3v0.6c0,2.9-2.3,5.3-5.1,5.3H115c-2.7,0-5.1-2.5-5.1-5.3v-0.6c0-2.9,2.3-5.3,5.1-5.3H130.9z
			 M129.5,2.3c20.9,0,37.9,17.8,37.9,39.8s-17,39.8-37.9,39.8H45.7c-2.9,0-5.5-2.5-5.5-5.7c0-3.1,2.3-5.7,5.5-5.7h19.5
			c2.9,0,5.5-2.5,5.5-5.7c0-3.1-2.3-5.7-5.5-5.7h-4.3c-2.9,0-5.5-2.5-5.5-5.7c0-3.1,2.3-5.7,5.5-5.7H74c2.9,0,5.3-2.7,5.5-5.7
			c0-3.1-2.3-5.7-5.5-5.7H28.5c-2.9,0-5.5-2.5-5.5-5.7c0-3.3,2.3-5.7,5.5-5.7h33.6c2.9,0,5.3-2.7,5.5-5.7c0-3.1-2.3-5.7-5.5-5.7
			h-7.6c-2.9,0-5.6-2.5-5.5-5.7c0.2-5.4,4.3-4.9,3.2-4.9C51.1,2.3,129.5,2.3,129.5,2.3"/>
	</g>
	<path class="st3" d="M42.4,47.5c2.7,0,5,2.5,5,5.4v0.6c0,2.9-2.3,5.4-5,5.4H30.9c-2.7,0-5-2.5-5-5.4v-0.6c0-2.9,2.3-5.4,5-5.4H42.4
		"/>
</g>
<g>
	<g>
		<defs>
			<rect id="SVGID_00000011716820131741507370000001687299576994894722_" x="34.2" y="19.6" width="314.2" height="44.1"/>
		</defs>
		<clipPath id="SVGID_00000157289742235958974410000008890723319589454514_">
			<use xlink:href="#SVGID_00000011716820131741507370000001687299576994894722_"  style="overflow:visible;"/>
		</clipPath>
		<path style="clip-path:url(#SVGID_00000157289742235958974410000008890723319589454514_);fill:#FFFFFF;" d="M330.8,20.2
			c0,0,1.9,0,2.7,0.6c0,0,0.8,0.6,1.5,2.4l13.4,39.1c0,0,0.2,0.4,0,0.9c0,0-0.1,0.5-0.8,0.5h-5.7c0,0-0.7,0-1.1-0.1
			c0,0-0.4-0.1-0.7-0.8l-2.7-8.4h-15.7l-2.6,8.3c0,0-0.2,0.6-0.6,0.8c0,0-0.3,0.2-1.1,0.2h-5.7c0,0-0.7,0-0.9-0.5c0,0-0.2-0.4,0-0.9
			L324,23.1c0,0,0.3-0.9,0.7-1.5c0,0,0.3-0.6,0.8-0.9c0,0,0.4-0.3,1.1-0.4c0,0,0.6-0.1,1.5-0.1H330.8 M329.6,28.5h-0.3l-2.6,8.5
			l-3.3,10.6h11.9L332,37.3L329.6,28.5z"/>
	</g>
	<path class="st5" d="M219.3,20c0,0,0.9,0,1.1,0.2c0,0,0.3,0.2,0.3,1.1v16.1H240V21.2c0,0,0-0.8,0.3-1c0,0,0.3-0.2,1.1-0.2h4.7
		c0,0,0.9,0,1.1,0.2c0,0,0.2,0.2,0.2,1.1V62c0,0,0,0.9-0.2,1.1c0,0-0.2,0.2-1.1,0.2h-4.7c0,0-0.8,0-1.1-0.2c0,0-0.3-0.2-0.3-1V43.8
		h-19.2V62c0,0,0,0.9-0.3,1.1c0,0-0.3,0.2-1.1,0.2h-4.7c0,0-0.7,0-1-0.2c0,0-0.3-0.2-0.3-1V21.4c0,0,0-0.8,0.3-1c0,0,0.3-0.2,1-0.2
		h4.7V20"/>
	<path class="st5" d="M206.7,20c0,0,0.7,0,0.9,0.2c0,0,0.2,0.2,0.2,0.9v4.3c0,0,0,0.7-0.2,0.9c0,0-0.2,0.2-0.9,0.2H195V62
		c0,0,0,0.9-0.2,1.1c0,0-0.2,0.2-1.1,0.2h-4.8c0,0-0.8,0-1.1-0.2c0,0-0.3-0.2-0.3-1V26.6h-11.5c0,0-0.7,0-0.9-0.2
		c0,0-0.2-0.2-0.2-0.9v-4.3c0,0,0-0.7,0.2-0.9c0,0,0.2-0.2,0.9-0.2H206.7"/>
	<path class="st5" d="M284.2,20c0,0,0.8,0,1,0.3c0,0,0.2,0.3,0.2,1.1v3.9c0,0,0,0.8-0.2,1.1c0,0-0.2,0.2-1,0.2h-16.4
		c0,0-2.4,0-3.3,1c0,0-0.9,1-0.9,3v6.5h18.7c0,0,0.8,0,1,0.3c0,0,0.2,0.3,0.2,1.1v3.4c0,0,0,0.8-0.2,1.1c0,0-0.2,0.3-1,0.3h-18.7v9
		c0,0,0,2,1,3c0,0,1,1,3.3,1h16.9c0,0,0.9,0,1.1,0.3c0,0,0.2,0.3,0.2,1.1V62c0,0,0,0.7-0.2,1c0,0-0.2,0.3-1,0.3h-17.7
		c0,0-3.3,0-5.4-0.9c0,0-2.1-0.9-3.4-2.5c0,0-1.2-1.6-1.8-3.5c0,0-0.4-2-0.4-4.2V31.2c0,0,0-2.1,0.6-4.2c0,0,0.6-2,1.9-3.6
		c0,0,1.3-1.6,3.5-2.5c0,0,2.1-0.9,5.1-0.9H284.2"/>
	<path class="st5" d="M301.2,20c0,0,0.9,0,1.1,0.2c0,0,0.3,0.2,0.3,1.1V62c0,0,0,0.9-0.3,1.1c0,0-0.3,0.2-1.1,0.2h-4.7
		c0,0-0.8,0-1.1-0.2c0,0-0.3-0.2-0.3-1V21.2c0,0,0-0.8,0.3-1c0,0,0.3-0.2,1.1-0.2H301.2"/>
</g>
<circle class="st3" cx="401" cy="42.6" r="39.5"/>
<g>
	<path class="st5" d="M377.4,54.8V28.2h5.3v26.6H377.4z"/>
	<path class="st5" d="M387.3,54.8V28.2h11.3c1.8,0,3.3,0.3,4.5,1c1.2,0.6,2.2,1.5,2.9,2.7c0.7,1.2,1.2,2.6,1.5,4.2s0.4,3.4,0.4,5.4
		c0,3-0.3,5.5-1,7.5c-0.7,2-1.7,3.4-3.1,4.4s-3.1,1.5-5.2,1.5H387.3z M392.6,50h5.4c1.1,0,2-0.3,2.6-1c0.6-0.6,1.1-1.6,1.4-2.9
		c0.3-1.3,0.5-2.8,0.5-4.7c0-1.7-0.1-3.1-0.3-4.3c-0.2-1.1-0.5-2-0.8-2.6c-0.4-0.6-0.8-1.1-1.4-1.3c-0.6-0.2-1.2-0.4-2-0.4h-5.4V50z
		"/>
	<path class="st5" d="M418.3,55c-0.6,0-1.2-0.1-2-0.2c-0.7-0.1-1.5-0.4-2.1-0.7c-0.7-0.4-1.2-1-1.7-1.7s-0.7-1.9-0.7-3.2V34.2
		c0-1.2,0.2-2.2,0.5-3c0.4-0.8,0.8-1.4,1.4-1.9c0.6-0.5,1.3-0.8,2-1c0.7-0.2,1.4-0.3,2.1-0.3c1.8,0,3.4,0,4.8,0.1
		c1.4,0,2.6,0.1,3.7,0.2c1.1,0.1,2.1,0.1,3,0.2v4.5h-9.9c-0.7,0-1.3,0.2-1.7,0.5c-0.4,0.4-0.6,0.9-0.6,1.7v3.9l10.5,0.3v4.2
		l-10.5,0.3v3.7c0,0.6,0.1,1.1,0.3,1.5c0.2,0.3,0.5,0.6,0.8,0.7c0.3,0.1,0.7,0.2,1.1,0.2h10v4.5c-1.1,0.1-2.2,0.2-3.5,0.3
		c-1.3,0.1-2.6,0.1-3.9,0.2C420.7,55,419.4,55,418.3,55z"/>
</g>
</svg>
